<svg width="321" height="255" viewBox="0 0 321 255" fill="none" xmlns="http://www.w3.org/2000/svg">
<path d="M74.5953 117.176C188.527 195.675 200.532 253 138 253C75.4684 253 0 198.808 0 129C0 59.1924 75.4684 1 138 1C200.532 1 61.15 -9.1598 74.5953 117.176Z" fill="White"/>
<path d="M62.2 193.1C59.6 193.1 57.35 191.6 55.45 188.6C53.55 185.7 52.2 180.95 51.4 174.35C51.3 173.85 51.25 173.25 51.25 172.55C51.25 171.75 51.25 170.95 51.25 170.15C51.25 166.85 51.45 162.7 51.85 157.7C52.25 152.6 52.75 147 53.35 140.9C53.95 134.8 54.5 128.55 55 122.15C55.6 115.65 56.1 109.3 56.5 103.1C56.9 96.9 57.1 91.25 57.1 86.15C57.1 79.85 56.7 74.75 55.9 70.85C55.1 66.95 53.65 65 51.55 65C50.25 65 48.95 65.75 47.65 67.25C46.45 68.65 45.35 70.25 44.35 72.05C43.45 73.75 42.7 75.15 42.1 76.25C41.6 77.25 41.3 77.4 41.2 76.7C41.1 76.3 41 75.95 40.9 75.65C40.9 75.25 40.9 74.85 40.9 74.45C40.9 72.55 41.35 70.55 42.25 68.45C43.15 66.35 44.4 64.6 46 63.2C47.6 61.7 49.4 60.95 51.4 60.95C51.8 60.95 52.15 61 52.45 61.1C52.75 61.1 53.05 61.15 53.35 61.25C57.25 62.25 59.9 65.45 61.3 70.85C62.7 76.25 63.4 82.8 63.4 90.5C63.4 96.3 63.1 102.45 62.5 108.95C62 115.45 61.4 122 60.7 128.6C60.1 135.1 59.5 141.3 58.9 147.2C58.4 153.1 58.15 158.3 58.15 162.8C58.15 164.1 58.15 165.35 58.15 166.55C58.25 167.65 58.35 168.7 58.45 169.7C59.25 176 60.35 180.4 61.75 182.9C63.15 185.5 64.75 186.8 66.55 186.8C68.55 186.8 70.6 185.7 72.7 183.5C74.9 181.3 77.05 178.55 79.15 175.25C81.25 171.95 83.15 168.65 84.85 165.35C87.15 161.05 89.25 156 91.15 150.2C93.05 144.4 94.75 138.5 96.25 132.5C97.85 126.5 99.1 121 100 116C99 114.3 98.4 112.55 98.2 110.75C98 108.95 97.9 106.65 97.9 103.85C97.9 100.85 98.45 98.5 99.55 96.8C100.65 95.1 101.8 94.25 103 94.25C104.8 94.25 106 95.75 106.6 98.75C107.7 103.75 108.8 109.05 109.9 114.65C111 120.15 112.2 125.55 113.5 130.85C114.9 136.15 116.5 141.05 118.3 145.55C122 154.45 125.4 160.85 128.5 164.75C131.6 168.55 134.45 170.45 137.05 170.45C139.75 170.45 142.1 168.75 144.1 165.35C146.2 161.85 147.95 157.3 149.35 151.7C150.75 146 151.8 139.85 152.5 133.25C153.2 126.55 153.55 120 153.55 113.6C153.55 108.3 153.3 103.35 152.8 98.75C152.4 94.15 151.65 90.4 150.55 87.5C150.15 86.3 149.85 85.05 149.65 83.75C149.45 82.45 149.35 81.25 149.35 80.15C149.35 78.75 149.5 77.55 149.8 76.55C150.2 75.55 150.75 75.05 151.45 75.05C152.25 75.05 153.05 75.65 153.85 76.85C154.95 78.25 155.95 80.2 156.85 82.7C157.85 85.1 158.7 87.2 159.4 89C160.2 91 161.25 93.45 162.55 96.35C163.85 99.15 165.2 101.75 166.6 104.15C168.1 106.45 169.55 107.85 170.95 108.35C171.15 108.45 171.25 108.65 171.25 108.95C171.25 109.55 170.8 110.05 169.9 110.45C169 110.85 168.35 111 167.95 110.9C165.65 109.8 163.7 108.65 162.1 107.45C160.6 106.15 158.85 103.8 156.85 100.4C156.95 102.2 157 104.05 157 105.95C157 107.75 157 109.55 157 111.35C157 116.55 156.8 121.75 156.4 126.95C156.1 132.15 155.45 137.4 154.45 142.7C152.25 154.2 149.45 162.4 146.05 167.3C142.75 172.2 139.25 174.65 135.55 174.65C132.55 174.65 129.55 173.35 126.55 170.75C123.65 168.05 120.95 164.5 118.45 160.1C115.95 155.7 113.8 150.8 112 145.4C110.4 140.2 109.05 135.45 107.95 131.15C106.85 126.75 106 122.9 105.4 119.6C103.8 126.8 101.7 133.95 99.1 141.05C96.6 148.15 93.8 154.85 90.7 161.15C87.6 167.35 84.35 172.85 80.95 177.65C77.65 182.45 74.35 186.2 71.05 188.9C67.85 191.7 64.9 193.1 62.2 193.1Z" fill="rgb(168, 31, 0)"/>
<path d="M161.68 167.36C160.4 167.36 159.253 166.933 158.24 166.08C157.227 165.227 156.413 164.027 155.8 162.48C155.213 160.907 154.92 159.093 154.92 157.04C154.92 154.933 155.227 153.08 155.84 151.48C156.453 149.88 157.293 148.627 158.36 147.72C159.427 146.813 160.613 146.36 161.92 146.36C163.493 146.36 164.76 147.013 165.72 148.32C166.707 149.6 167.2 151.693 167.2 154.6C167.2 155.48 166.867 155.92 166.2 155.92H158.6C158.067 155.92 157.8 156.227 157.8 156.84C157.8 159.667 158.213 161.787 159.04 163.2C159.867 164.613 160.92 165.32 162.2 165.32C163.213 165.32 164.04 164.96 164.68 164.24C165.32 163.52 165.84 162.307 166.24 160.6C166.32 160.307 166.493 160.16 166.76 160.16C167.08 160.16 167.2 160.427 167.12 160.96C166.693 163.333 166.013 165 165.08 165.96C164.147 166.893 163.013 167.36 161.68 167.36ZM158.48 154.92H162.52C163.8 154.92 164.44 154.253 164.44 152.92C164.44 151.187 164.227 149.827 163.8 148.84C163.373 147.853 162.733 147.36 161.88 147.36C160.84 147.36 159.96 147.96 159.24 149.16C158.547 150.36 158.093 152.067 157.88 154.28C157.827 154.707 158.027 154.92 158.48 154.92Z" fill="#FFFFFF"/>
<path d="M169.419 167C169.019 167 168.819 166.853 168.819 166.56C168.819 166.32 168.992 166.16 169.339 166.08L169.819 166C170.379 165.893 170.739 165.733 170.899 165.52C171.085 165.28 171.179 164.88 171.179 164.32V150.88C171.179 150.4 171.099 150.08 170.939 149.92C170.805 149.733 170.552 149.613 170.179 149.56L169.339 149.44C168.992 149.413 168.819 149.267 168.819 149C168.819 148.787 169.032 148.64 169.459 148.56C170.285 148.427 170.912 148.213 171.339 147.92C171.792 147.627 172.259 147.267 172.739 146.84C172.979 146.6 173.179 146.48 173.339 146.48C173.579 146.48 173.699 146.64 173.699 146.96V148.76C173.699 149 173.779 149.16 173.939 149.24C174.125 149.293 174.325 149.213 174.539 149C175.605 147.987 176.539 147.293 177.339 146.92C178.165 146.547 179.032 146.36 179.939 146.36C181.139 146.36 182.099 146.787 182.819 147.64C183.539 148.467 183.899 149.693 183.899 151.32V164.32C183.899 164.88 183.979 165.28 184.139 165.52C184.325 165.733 184.699 165.88 185.259 165.96L186.139 166.08C186.432 166.133 186.579 166.293 186.579 166.56C186.579 166.853 186.419 167 186.099 167H179.379C179.005 167 178.819 166.853 178.819 166.56C178.819 166.293 178.965 166.133 179.259 166.08L179.819 166C180.379 165.92 180.739 165.76 180.899 165.52C181.085 165.28 181.179 164.88 181.179 164.32V151.76C181.179 150.453 180.939 149.533 180.459 149C179.979 148.467 179.299 148.2 178.419 148.2C177.565 148.2 176.792 148.453 176.099 148.96C175.432 149.44 174.899 150.093 174.499 150.92C174.099 151.72 173.899 152.613 173.899 153.6V164.32C173.899 164.88 173.979 165.28 174.139 165.52C174.325 165.76 174.699 165.907 175.259 165.96L176.339 166.08C176.632 166.133 176.779 166.28 176.779 166.52C176.779 166.84 176.579 167 176.179 167H169.419Z" fill="#FFFFFF"/>
<path d="M194.208 167.36C193.034 167.36 191.968 166.973 191.008 166.2C190.074 165.4 189.328 164.267 188.768 162.8C188.208 161.333 187.928 159.587 187.928 157.56C187.928 155.293 188.261 153.32 188.928 151.64C189.621 149.96 190.554 148.667 191.728 147.76C192.901 146.827 194.208 146.36 195.648 146.36C196.874 146.36 197.834 146.6 198.528 147.08C198.794 147.267 198.928 147.56 198.928 147.96L199.008 152.84C199.008 153.24 198.848 153.44 198.528 153.44C198.234 153.44 198.048 153.267 197.968 152.92C197.594 151.453 197.234 150.32 196.888 149.52C196.541 148.72 196.181 148.173 195.808 147.88C195.434 147.56 195.021 147.4 194.568 147.4C194.034 147.4 193.474 147.707 192.888 148.32C192.328 148.933 191.848 149.933 191.448 151.32C191.074 152.68 190.888 154.48 190.888 156.72C190.888 159.573 191.248 161.72 191.968 163.16C192.714 164.6 193.674 165.32 194.848 165.32C195.781 165.32 196.554 164.933 197.168 164.16C197.808 163.387 198.354 161.987 198.808 159.96C198.888 159.667 199.048 159.52 199.288 159.52C199.608 159.52 199.728 159.787 199.648 160.32C199.354 162.187 198.941 163.64 198.408 164.68C197.901 165.693 197.288 166.4 196.568 166.8C195.874 167.173 195.088 167.36 194.208 167.36Z" fill="#FFFFFF"/>
<path d="M208.242 167.36C206.962 167.36 205.816 166.933 204.802 166.08C203.789 165.227 202.976 164.027 202.362 162.48C201.776 160.907 201.482 159.093 201.482 157.04C201.482 154.933 201.789 153.08 202.402 151.48C203.016 149.88 203.856 148.627 204.922 147.72C205.989 146.813 207.176 146.36 208.482 146.36C210.056 146.36 211.322 147.013 212.282 148.32C213.269 149.6 213.762 151.693 213.762 154.6C213.762 155.48 213.429 155.92 212.762 155.92H205.162C204.629 155.92 204.362 156.227 204.362 156.84C204.362 159.667 204.776 161.787 205.602 163.2C206.429 164.613 207.482 165.32 208.762 165.32C209.776 165.32 210.603 164.96 211.243 164.24C211.882 163.52 212.402 162.307 212.802 160.6C212.882 160.307 213.056 160.16 213.322 160.16C213.642 160.16 213.762 160.427 213.682 160.96C213.256 163.333 212.576 165 211.642 165.96C210.709 166.893 209.576 167.36 208.242 167.36ZM205.042 154.92H209.083C210.363 154.92 211.002 154.253 211.002 152.92C211.002 151.187 210.789 149.827 210.362 148.84C209.936 147.853 209.296 147.36 208.442 147.36C207.402 147.36 206.522 147.96 205.802 149.16C205.109 150.36 204.656 152.067 204.442 154.28C204.389 154.707 204.589 154.92 205.042 154.92Z" fill="#FFFFFF"/>
<path d="M215.581 167C215.261 167 215.101 166.853 215.101 166.56C215.101 166.293 215.248 166.133 215.541 166.08L216.101 166C216.661 165.92 217.075 165.76 217.341 165.52C217.608 165.28 217.741 164.88 217.741 164.32V141.4C217.741 140.92 217.661 140.587 217.501 140.4C217.368 140.213 217.115 140.107 216.741 140.08L215.821 139.96C215.528 139.907 215.381 139.747 215.381 139.48C215.381 139.213 215.528 139.053 215.821 139C216.568 138.84 217.208 138.653 217.741 138.44C218.275 138.227 218.715 138.013 219.061 137.8C219.488 137.533 219.808 137.4 220.021 137.4C220.315 137.4 220.461 137.613 220.461 138.04V164.32C220.461 164.88 220.541 165.28 220.701 165.52C220.888 165.733 221.261 165.88 221.821 165.96L222.741 166.08C223.035 166.133 223.181 166.293 223.181 166.56C223.181 166.853 223.021 167 222.701 167H215.581Z" fill="#FFFFFF"/>
<path d="M228.37 167.36C227.25 167.36 226.33 167.013 225.61 166.32C224.89 165.6 224.53 164.653 224.53 163.48C224.53 162.333 224.89 161.253 225.61 160.24C226.33 159.2 227.317 158.267 228.57 157.44C229.824 156.613 231.25 155.947 232.85 155.44C233.197 155.333 233.37 155.107 233.37 154.76V151.12C233.37 149.84 233.17 148.933 232.77 148.4C232.37 147.84 231.824 147.56 231.13 147.56C230.464 147.56 229.85 147.867 229.29 148.48C228.757 149.067 228.37 150.067 228.13 151.48C227.997 152.333 227.704 152.96 227.25 153.36C226.824 153.733 226.384 153.92 225.93 153.92C225.184 153.92 224.81 153.547 224.81 152.8C224.81 152.027 225.024 151.267 225.45 150.52C225.904 149.747 226.49 149.053 227.21 148.44C227.93 147.8 228.717 147.293 229.57 146.92C230.424 146.547 231.277 146.36 232.13 146.36C234.77 146.36 236.09 147.893 236.09 150.96V163.2C236.09 164.32 236.37 164.88 236.93 164.88C237.277 164.88 237.597 164.653 237.89 164.2C238.184 163.72 238.33 162.92 238.33 161.8C238.33 161.373 238.504 161.16 238.85 161.16C239.17 161.16 239.33 161.387 239.33 161.84C239.33 163.787 238.984 165.2 238.29 166.08C237.624 166.933 236.864 167.36 236.01 167.36C235.37 167.36 234.864 167.107 234.49 166.6C234.117 166.067 233.864 165.44 233.73 164.72C233.704 164.453 233.584 164.32 233.37 164.32C233.184 164.293 232.997 164.413 232.81 164.68C232.17 165.56 231.517 166.227 230.85 166.68C230.184 167.133 229.357 167.36 228.37 167.36ZM229.45 165.52C230.144 165.52 230.784 165.28 231.37 164.8C231.957 164.293 232.437 163.627 232.81 162.8C233.184 161.973 233.37 161.04 233.37 160V157.08C233.37 156.573 233.09 156.427 232.53 156.64C230.904 157.227 229.637 158.04 228.73 159.08C227.85 160.093 227.41 161.32 227.41 162.76C227.41 164.6 228.09 165.52 229.45 165.52Z" fill="#FFFFFF"/>
<path d="M244.787 167.36C244.174 167.36 243.52 167.28 242.827 167.12C242.134 166.987 241.574 166.813 241.147 166.6C240.907 166.467 240.787 166.24 240.787 165.92L240.667 161.44C240.667 160.987 240.84 160.76 241.187 160.76C241.48 160.76 241.68 160.973 241.787 161.4C242.24 163.293 242.787 164.587 243.427 165.28C244.094 165.973 244.894 166.32 245.827 166.32C246.6 166.32 247.24 166.027 247.747 165.44C248.254 164.827 248.507 163.987 248.507 162.92C248.507 161.853 248.214 160.907 247.627 160.08C247.04 159.253 246.054 158.347 244.667 157.36C243.28 156.427 242.267 155.493 241.627 154.56C240.987 153.6 240.667 152.56 240.667 151.44C240.667 149.92 241.2 148.693 242.267 147.76C243.334 146.827 244.747 146.36 246.507 146.36C247.04 146.36 247.56 146.427 248.067 146.56C248.574 146.667 249.027 146.853 249.427 147.12C249.667 147.28 249.787 147.493 249.787 147.76L249.867 152.16C249.867 152.56 249.707 152.76 249.387 152.76C249.2 152.76 249.067 152.707 248.987 152.6C248.907 152.467 248.84 152.307 248.787 152.12C248.254 150.387 247.72 149.187 247.187 148.52C246.654 147.827 246 147.48 245.227 147.48C244.534 147.48 243.96 147.72 243.507 148.2C243.054 148.68 242.827 149.28 242.827 150C242.827 150.933 243.107 151.747 243.667 152.44C244.227 153.133 245.24 153.987 246.707 155C248.04 155.96 249.04 157 249.707 158.12C250.4 159.213 250.747 160.413 250.747 161.72C250.747 163.427 250.2 164.8 249.107 165.84C248.014 166.853 246.574 167.36 244.787 167.36Z" fill="#FFFFFF"/>
<path d="M204.466 125.491C203.06 125.928 201.52 125.771 199.845 125.019C198.2 124.258 196.592 122.915 195.021 120.991C193.481 119.058 192.149 116.557 191.026 113.488C190.107 113.874 189.251 114.191 188.456 114.439C186.684 114.991 185.314 115.166 184.347 114.964C183.41 114.753 182.827 114.281 182.599 113.548C182.37 112.815 182.469 111.896 182.896 110.791C183.323 109.686 184.025 108.495 185.002 107.219C185.969 105.913 187.179 104.631 188.631 103.375C188.241 100.077 188.126 96.4264 188.287 92.4216C188.469 88.3767 189.027 83.98 189.961 79.2314C190.051 78.7676 190.31 78.4691 190.738 78.336C191.013 78.2503 191.286 78.2659 191.557 78.3826C191.828 78.4993 192.011 78.7105 192.106 79.016C192.154 79.1688 192.17 79.3816 192.154 79.6546C191.426 84.2048 190.919 88.3343 190.632 92.0431C190.367 95.7119 190.291 99.02 190.405 101.968C191.618 101.02 192.951 100.136 194.405 99.3144C195.858 98.4931 197.385 97.7998 198.986 97.2345C199.413 97.1013 199.646 97.0958 199.684 97.218C199.722 97.3402 199.608 97.51 199.34 97.7274C199.094 97.9047 198.639 98.1132 197.976 98.3531C196.508 98.9109 195.138 99.5719 193.868 100.336C192.619 101.06 191.47 101.837 190.421 102.666C190.515 104.581 190.677 106.34 190.908 107.944C191.13 109.517 191.41 110.955 191.749 112.257C194.686 110.605 197.239 108.738 199.405 106.656C201.593 104.533 203.414 102.307 204.867 99.978C206.32 97.6486 207.434 95.358 208.207 93.1062C208.701 91.6788 208.993 90.465 209.084 89.4648C209.196 88.4246 209.147 87.5684 208.938 86.8962C208.633 85.9185 208.09 85.2498 207.308 84.8901C206.516 84.4999 205.578 84.3395 204.494 84.409C203.4 84.448 202.257 84.653 201.065 85.024C199.813 85.4141 198.583 85.9311 197.376 86.5751C196.159 87.1886 195.093 87.8556 194.178 88.5763C193.953 88.7135 193.794 88.7964 193.702 88.8249C193.305 88.9486 193.064 88.8729 192.978 88.598C192.893 88.323 192.994 88.0568 193.283 87.7994C196.375 84.4905 198.444 81.7179 199.49 79.4817C200.537 77.2454 200.875 75.5315 200.504 74.34C200.18 73.3012 199.444 72.659 198.295 72.4135C197.167 72.1279 195.824 72.2277 194.266 72.7129C193.044 73.0934 191.731 73.7201 190.327 74.593C188.923 75.4659 187.549 76.5975 186.206 77.9877C185.09 79.1396 184.139 80.3909 183.353 81.7416C182.588 83.0523 181.99 84.3613 181.559 85.6685C181.149 86.9356 180.908 88.0998 180.837 89.1611C180.755 90.1919 180.861 91.0138 181.152 91.6269C181.171 91.688 181.195 91.7643 181.223 91.856C181.273 91.9076 181.307 91.9639 181.326 92.0251C181.564 92.7889 181.454 93.2421 180.996 93.3849C180.782 93.4514 180.505 93.37 180.165 93.1406C179.856 92.9017 179.607 92.4767 179.417 91.8656C179.131 90.949 179.102 89.8857 179.328 88.6757C179.585 87.4561 180.026 86.1794 180.649 84.8457C181.294 83.4719 182.069 82.1412 182.976 80.8536C183.872 79.5354 184.857 78.3405 185.931 77.2687C187.305 75.8689 188.72 74.7078 190.176 73.7854C191.662 72.8534 193.077 72.1781 194.421 71.7595C196.285 71.1792 197.912 71.0749 199.301 71.4467C200.69 71.8184 201.59 72.6612 201.999 73.975C202.379 75.1971 202.226 76.8033 201.538 78.7937C200.851 80.784 199.406 83.1945 197.204 86.0252C198.104 85.5775 198.957 85.1947 199.763 84.8767C200.559 84.5282 201.309 84.2445 202.011 84.0257C204.639 83.2075 206.671 83.0607 208.108 83.5852C209.566 84.0697 210.509 84.9993 210.937 86.3742C211.251 87.3825 211.303 88.5728 211.094 89.9451C210.905 91.2773 210.502 92.7268 209.884 94.2934C208.979 96.5527 207.672 98.8698 205.965 101.245C204.289 103.61 202.266 105.832 199.897 107.91C197.558 109.979 194.912 111.708 191.96 113.097C192.745 115.835 193.689 118.004 194.791 119.605C195.923 121.196 197.084 122.343 198.275 123.045C199.475 123.777 200.58 124.204 201.589 124.325C202.609 124.477 203.408 124.463 203.989 124.282C204.417 124.149 204.683 123.982 204.788 123.782C204.863 123.591 205.023 123.457 205.267 123.381C205.511 123.305 205.769 123.325 206.04 123.442C206.311 123.559 206.48 123.724 206.546 123.938C206.603 124.121 206.539 124.292 206.354 124.45C205.767 124.935 205.138 125.282 204.466 125.491ZM188.454 113.786C188.79 113.681 189.147 113.537 189.525 113.352C189.913 113.198 190.327 113.018 190.766 112.815C190.336 111.541 189.948 110.187 189.602 108.753C189.256 107.319 188.967 105.8 188.736 104.197C187.094 105.814 185.903 107.425 185.163 109.029C184.413 110.603 184.186 111.864 184.481 112.811C184.661 113.392 185.084 113.78 185.748 113.975C186.422 114.201 187.324 114.138 188.454 113.786Z" fill="#FFFFFF"/>
<path d="M221.67 103.041C220.662 103.355 219.742 103.306 218.91 102.895C218.109 102.474 217.408 101.838 216.807 100.986C216.197 100.103 215.726 99.1272 215.393 98.0578C215.193 97.4162 215.064 96.7861 215.005 96.1675C214.947 95.549 214.922 95.0373 214.93 94.6327C214.833 94.4283 214.735 94.2239 214.638 94.0196C214.562 93.7752 214.486 93.5307 214.41 93.2863C214.134 92.4003 213.926 91.4093 213.786 90.3134C213.646 89.2175 213.627 88.1342 213.729 87.0634C213.862 85.983 214.143 85.0575 214.574 84.2867C215.025 83.4758 215.709 82.9277 216.626 82.6423C217.42 82.3949 218.304 82.4884 219.277 82.9228C220.24 83.3265 221.208 84.0644 222.178 85.1363C222.733 85.7344 223.2 86.4268 223.579 87.2137C223.979 87.9605 224.308 88.7464 224.565 89.5713C224.917 90.7018 225.146 91.8703 225.254 93.0769C225.383 94.2434 225.385 95.3821 225.262 96.493C225.175 97.2908 224.996 98.1678 224.724 99.1239C224.473 100.04 224.107 100.858 223.627 101.577C223.148 102.296 222.495 102.784 221.67 103.041ZM221.585 101.961C222.624 101.638 223.363 100.62 223.802 98.9082C224.13 97.7002 224.231 96.4118 224.107 95.0429C223.972 93.6435 223.701 92.2869 223.292 90.9731C222.987 89.9954 222.631 89.0673 222.224 88.1888C221.816 87.3102 221.357 86.4813 220.846 85.7019C220.394 85.0047 219.818 84.4467 219.118 84.0279C218.439 83.569 217.656 83.5281 216.767 83.9052C216.053 84.1946 215.526 84.7611 215.185 85.6045C214.844 86.4479 214.655 87.3449 214.615 88.2955C214.597 89.2061 214.683 89.9669 214.874 90.578C214.978 90.914 215.105 91.1595 215.254 91.3143C215.269 91.0413 215.375 90.5727 215.57 89.9086C215.756 89.214 216.007 88.5661 216.322 87.9651C216.628 87.3336 216.98 86.956 217.377 86.8323C217.713 86.7276 217.924 86.8128 218.01 87.0878C217.622 87.242 217.301 87.6101 217.047 88.1921C216.813 88.734 216.624 89.3628 216.478 90.0785C216.362 90.7847 216.293 91.4766 216.269 92.1543C216.267 92.7919 216.272 93.293 216.285 93.6576C216.293 93.7893 216.294 93.9564 216.29 94.1587C216.286 94.3611 216.313 94.5539 216.37 94.7372C216.436 94.9511 216.668 95.2644 217.065 95.6771C217.452 96.0593 217.982 96.3634 218.656 96.5893C219.329 96.8153 220.14 96.7808 221.087 96.4859C221.362 96.4002 221.643 96.2793 221.929 96.1231C222.216 95.9668 222.487 95.8153 222.743 95.6686L223.035 95.4771C223.096 95.458 223.136 95.4791 223.155 95.5402C223.184 95.6318 223.115 95.7873 222.949 96.0067C222.803 96.186 222.664 96.33 222.53 96.4387C222.169 96.7857 221.729 97.0401 221.209 97.2018C220.446 97.4397 219.641 97.4389 218.796 97.1994C217.971 96.9198 217.204 96.5554 216.494 96.1061C216.54 96.36 216.601 96.6092 216.677 96.8536C216.744 97.0675 216.81 97.2813 216.877 97.4952C217.429 99.2673 218.153 100.517 219.049 101.243C219.946 101.969 220.791 102.209 221.585 101.961Z" fill="#FFFFFF"/>
<path d="M230.289 98.1953C229.892 98.3189 229.494 98.225 229.096 97.9134C228.728 97.5923 228.421 96.984 228.176 96.0885C228.042 95.6607 227.946 94.92 227.886 93.8662C227.816 92.7818 227.729 91.5857 227.623 90.278C227.548 88.9607 227.437 87.6883 227.289 86.4607C227.172 85.2236 226.999 84.2384 226.771 83.5051C226.666 83.169 226.55 82.9035 226.422 82.7087C226.285 82.4833 226.094 82.4086 225.85 82.4848C225.667 82.5418 225.527 82.6858 225.431 82.9167C225.326 83.117 225.221 83.3174 225.116 83.5177C224.988 83.8593 224.908 84.0348 224.878 84.0443C224.847 84.0539 224.818 84.0128 224.789 83.9211C224.675 83.5545 224.689 83.1145 224.83 82.6011C224.993 82.0477 225.273 81.7091 225.671 81.5855C226.159 81.4332 226.587 81.5683 226.953 81.9905C227.309 82.3822 227.621 83.0058 227.887 83.8613C228.182 84.8084 228.408 85.9111 228.565 87.1693C228.723 88.4274 228.841 89.614 228.92 90.7289C228.95 91.2558 229.028 91.8849 229.156 92.6161C229.283 93.3474 229.451 94.0491 229.66 94.7213C229.841 95.3018 230.039 95.7764 230.254 96.145C230.491 96.4736 230.762 96.5903 231.067 96.4952C231.312 96.4191 231.559 96.1912 231.81 95.8116C232.081 95.3919 232.352 94.7546 232.622 93.8996C233.02 92.7031 233.299 91.3929 233.459 89.969C233.64 88.505 233.813 87.1775 233.979 85.9865C234.029 85.5016 234.191 85.2164 234.466 85.1308C235.169 84.912 235.639 85.1845 235.877 85.9483C236.058 86.5288 236.195 87.2906 236.287 88.2337C236.401 89.1368 236.581 89.9855 236.829 90.7799C237.276 92.2159 237.774 92.8483 238.324 92.677C238.599 92.5914 238.822 92.3377 238.992 91.916C239.184 91.4543 239.285 91.1881 239.296 91.1174C239.413 90.8465 239.548 90.6872 239.701 90.6397C239.884 90.5826 240.009 90.661 240.076 90.8748C240.199 91.272 240.103 91.7711 239.788 92.3721C239.472 92.9731 239.055 93.3545 238.535 93.5162C238.046 93.6684 237.597 93.6241 237.187 93.3831C236.798 93.1021 236.39 92.7094 235.965 92.205C235.471 91.5879 235.144 91.0197 234.982 90.5003C234.82 89.9809 234.633 89.4862 234.419 89.0164C234.434 89.8163 234.31 90.7096 234.047 91.6962C233.815 92.6734 233.497 93.6438 233.094 94.6074C232.711 95.5309 232.27 96.3217 231.771 96.9798C231.272 97.6379 230.778 98.043 230.289 98.1953Z" fill="#FFFFFF"/>
<path d="M241.116 78.4351C240.841 78.5207 240.6 78.4451 240.392 78.2081C240.205 77.9311 240.092 77.7315 240.054 77.6093C239.902 77.1205 239.897 76.6194 240.039 76.106C240.202 75.5526 240.462 75.2035 240.819 75.0588L240.956 75.016C241.323 74.9018 241.596 74.9174 241.775 75.0626C241.975 75.1678 242.114 75.3426 242.19 75.5871C242.332 76.0454 242.291 76.6113 242.065 77.2849C241.829 77.928 241.513 78.3114 241.116 78.4351ZM243.887 95.5699C242.849 95.8933 242.022 95.715 241.408 95.0348C240.794 94.3545 240.325 93.495 240.002 92.4562C239.679 91.4174 239.448 90.2995 239.31 89.1024C239.193 87.8653 239.124 86.7303 239.104 85.6976C239.115 84.6553 239.135 83.9118 239.164 83.467C239.281 82.6597 239.431 81.9592 239.615 81.3657C239.79 80.7417 240.075 80.3678 240.473 80.2441C240.748 80.1585 240.98 80.2036 241.168 80.3794C241.378 80.5152 241.531 80.7358 241.626 81.0413C241.816 81.6524 241.843 82.3311 241.707 83.0773C241.561 83.793 241.436 84.4687 241.332 85.1043C241.111 86.5472 240.97 87.8146 240.908 88.9065C240.876 89.9888 241.088 91.2633 241.545 92.7298C241.84 93.677 242.146 94.3359 242.462 94.7065C242.809 95.0677 243.166 95.1912 243.533 95.077C244.022 94.9248 244.501 94.4738 244.972 93.7241C245.433 92.9438 245.852 91.9754 246.229 90.819C246.606 89.6625 246.883 88.4535 247.06 87.1918C247.177 86.3845 247.328 85.9522 247.511 85.8952C247.633 85.8571 247.732 85.9603 247.808 86.2047C247.913 86.5408 247.928 87.0725 247.853 87.7997C247.798 88.4869 247.688 89.2083 247.521 89.9641C247.385 90.7104 247.221 91.3144 247.03 91.7762C246.719 92.6101 246.309 93.3914 245.799 94.1201C245.288 94.8488 244.651 95.332 243.887 95.5699Z" fill="#FFFFFF"/>
<path d="M254.859 98.9906C254.554 99.0857 254.171 98.987 253.712 98.6944C253.292 98.4229 252.84 97.9939 252.356 97.4074C251.555 96.4502 250.872 95.389 250.309 94.224C249.754 93.0895 249.287 91.9112 248.906 90.6891C248.488 89.3447 248.17 88.0024 247.954 86.6621C247.738 85.3218 247.575 84.0989 247.465 82.9935C247.39 82.2127 247.33 81.3765 247.287 80.485C247.244 79.5935 247.238 78.8747 247.27 78.3288C247.096 78.4164 246.839 78.6137 246.499 78.9207C246.159 79.2277 245.803 79.5395 245.433 79.856C245.092 80.163 244.77 80.3641 244.464 80.4592C244.006 80.6019 243.696 80.4136 243.534 79.8941C243.448 79.6192 243.464 79.3462 243.581 79.0753C243.728 78.7948 243.935 78.5459 244.203 78.3285C244.728 77.8633 245.339 77.4554 246.034 77.1048C246.719 76.7238 247.161 76.4188 247.358 76.1899L247.607 72.7941C247.634 72.4505 247.696 71.8951 247.792 71.1278C247.91 70.3204 248.058 69.4529 248.239 68.5254C248.45 67.5883 248.669 66.7323 248.897 65.9575C249.081 65.364 249.283 64.8822 249.503 64.5121C249.713 64.1114 250.002 63.854 250.368 63.7399C250.918 63.5686 251.26 63.6969 251.393 64.1246C251.469 64.369 251.476 64.769 251.415 65.3244C251.384 65.8703 251.232 66.6214 250.96 67.5775C250.665 68.6748 250.355 69.7769 250.029 70.8838C249.724 71.9506 249.51 73.0394 249.387 74.1503C249.395 74.2821 249.38 74.5044 249.343 74.8175C249.328 75.0904 249.299 75.267 249.257 75.3471L250.131 74.9242C250.366 74.8176 250.636 74.7167 250.941 74.6215C251.237 74.4958 251.569 74.3759 251.935 74.2617C252.455 74.1 252.953 73.9784 253.43 73.8968C253.929 73.7751 254.35 73.7278 254.693 73.7549C254.865 73.7684 255.026 73.802 255.177 73.8556C255.349 73.8691 255.444 73.9064 255.463 73.9676C255.501 74.0898 255.123 74.2745 254.329 74.5219C253.871 74.6646 253.238 74.9455 252.43 75.3647C251.652 75.7743 250.781 76.3137 249.817 76.9827C249.345 77.2972 249.06 77.6205 248.962 77.9526C248.865 78.2846 248.825 79.0176 248.843 80.1516C248.898 81.9441 249.026 83.647 249.227 85.2603C249.418 86.843 249.68 88.4373 250.012 90.0431C250.077 90.3581 250.146 90.6884 250.22 91.034C250.325 91.3701 250.439 91.7368 250.563 92.1339C250.886 93.1728 251.316 94.2288 251.851 95.3022C252.417 96.3661 253.027 97.2487 253.681 97.9499C253.83 98.1047 253.974 98.2442 254.113 98.3684C254.283 98.4831 254.453 98.5473 254.625 98.5608C254.868 98.5859 255.008 98.6595 255.046 98.7817C255.074 98.8734 255.012 98.943 254.859 98.9906Z" fill="#FFFFFF"/>
<path d="M262.308 108.385C261.116 108.756 260.054 108.735 259.121 108.322C258.197 107.939 257.574 107.228 257.25 106.189C256.965 105.273 256.939 104.275 257.173 103.197C257.386 102.159 257.731 101.113 258.207 100.06C258.724 99.0274 259.269 98.0868 259.842 97.2379C260.854 95.75 262.128 94.247 263.667 92.7291C265.235 91.2016 267.105 89.8319 269.275 88.62C269.201 88.2744 269.106 87.9183 268.992 87.5517C268.888 87.2156 268.783 86.8795 268.678 86.5434C267.908 84.0686 267.04 81.8753 266.076 79.9634C265.103 78.021 264.174 76.3831 263.29 75.0498C263.009 78.4551 262.71 81.3134 262.39 83.6249C262.062 85.9057 262.061 87.7326 262.388 89.1055C262.424 89.3289 262.357 89.6008 262.189 89.9214C262.061 90.2629 261.859 90.4765 261.584 90.5622C261.401 90.6192 261.184 90.5694 260.934 90.4126C260.725 90.2769 260.513 89.9741 260.3 89.5042C260.262 89.382 260.194 89.2187 260.097 89.0144C260.03 88.8005 259.911 88.4186 259.74 87.8686C259.569 87.3187 259.312 86.4938 258.97 85.3938C258.665 84.4161 258.325 83.4327 257.95 82.4435C257.596 81.4142 257.19 80.485 256.73 79.6561C256.271 78.8271 255.773 78.1948 255.235 77.759C254.727 77.3137 254.168 77.1861 253.557 77.3764C253.068 77.5286 252.667 77.8547 252.354 78.3545C252.071 78.8448 251.849 79.3161 251.688 79.7683C251.517 80.19 251.356 80.4247 251.203 80.4723C251.081 80.5103 251.006 80.4835 250.977 80.3918C250.958 80.3307 250.975 80.2248 251.029 80.0741C251.042 79.9023 251.065 79.761 251.098 79.6503C251.249 79.1675 251.477 78.6609 251.781 78.1305C252.116 77.5907 252.485 77.1071 252.888 76.6799C253.312 76.2126 253.723 75.9172 254.12 75.7935C254.945 75.5366 255.72 75.7646 256.444 76.4774C257.16 77.1596 257.809 78.1138 258.392 79.3399C259.005 80.5566 259.521 81.8371 259.94 83.1814C260.12 83.7619 260.309 84.4741 260.504 85.3181C260.7 86.1621 260.843 86.8886 260.932 87.4976C261.191 86.1769 261.48 84.3608 261.799 82.0494C262.118 79.7379 262.448 77.1383 262.789 74.2504L262.006 73.1872L261.963 73.0497C261.868 72.7442 261.888 72.4865 262.024 72.2767C262.19 72.0573 262.38 71.9143 262.594 71.8477C262.777 71.7907 262.975 71.7794 263.187 71.814C263.399 71.8486 263.564 71.948 263.682 72.1123C264.305 72.8231 264.963 73.8584 265.655 75.2183C266.377 76.5686 267.06 78.065 267.706 79.7074C268.372 81.3097 268.958 82.9205 269.462 84.5398C269.843 85.7619 270.154 86.9219 270.395 88.0198C271.111 87.6292 271.883 87.2549 272.71 86.8969C273.567 86.5293 274.317 86.2456 274.958 86.0459C275.355 85.9222 275.573 85.9214 275.611 86.0437C275.687 86.2881 275.414 86.5407 274.791 86.8016C274.077 87.0911 273.352 87.4005 272.617 87.73C271.922 88.0806 271.221 88.4664 270.514 88.8876C270.967 92.601 270.834 95.7258 270.115 98.2621C269.437 100.819 268.546 102.856 267.443 104.373C266.642 105.46 265.79 106.329 264.886 106.979C264.023 107.65 263.163 108.119 262.308 108.385ZM261.641 107.537C262.161 107.375 262.723 107.083 263.329 106.659C263.965 106.227 264.594 105.662 265.215 104.966C267.212 102.769 268.54 100.361 269.199 97.7429C269.868 95.155 269.953 92.4138 269.454 89.5193C267.804 90.5695 266.205 91.8382 264.657 93.3257C263.149 94.8341 261.842 96.4478 260.735 98.1666C260.243 98.9564 259.776 99.8226 259.332 100.765C258.919 101.698 258.617 102.613 258.427 103.51C258.247 104.438 258.271 105.268 258.499 106.002C258.718 106.704 259.103 107.188 259.654 107.452C260.215 107.746 260.878 107.775 261.641 107.537Z" fill="#FFFFFF"/>
</svg>
